<svg xmlns="http://www.w3.org/2000/svg" version="1.1" xmlns:xlink="http://www.w3.org/1999/xlink" width="512" height="512" x="0" y="0" viewBox="0 0 512 512" style="enable-background:new 0 0 512 512" xml:space="preserve" class=""><g><path d="M72.378 25.85 44.051 61.932C-5.861 125.511-.41 216.354 56.745 273.51L238.49 455.255c57.155 57.155 147.999 62.606 211.578 12.694l36.082-28.325c19.545-15.343 21.283-44.319 3.713-61.889l-79.192-79.192c-16.181-16.181-42.415-16.181-58.597 0l-25.764 25.764c-12.166 12.166-31.889 12.166-44.055 0l-94.624-94.624c-12.166-12.166-12.166-31.889 0-44.055l25.764-25.764c16.181-16.181 16.181-42.415 0-58.597l-79.128-79.128C116.696 4.568 87.721 6.306 72.378 25.85z" style="" fill="#605dff" data-original="#ff5d5d" class="" opacity="1"></path><path d="M410.67 298.542c-16.181-16.181-42.415-16.181-58.597 0l-25.764 25.764c-.301.301-.61.589-.92.875l134.813 134.813 25.947-20.37c19.545-15.343 21.283-44.319 3.713-61.889l-79.192-79.193zM134.266 22.137C116.697 4.568 87.721 6.306 72.378 25.85l-20.37 25.948 134.748 134.748c.286-.31.574-.619.875-.92l25.764-25.764c16.181-16.181 16.181-42.415 0-58.597l-79.129-79.128z" style="" fill="#95a2f8" data-original="#fe8f8d" class="" opacity="1"></path><path d="m496.935 370.662-79.193-79.193c-20.056-20.055-52.686-20.055-72.74 0l-25.764 25.765c-8.248 8.247-21.666 8.247-29.911 0l-94.625-94.625c-8.248-8.247-8.248-21.665 0-29.911l25.764-25.764c9.715-9.715 15.064-22.631 15.064-36.37 0-13.739-5.35-26.655-15.064-36.37l-79.128-79.128A51.484 51.484 0 0 0 101.888.093a51.468 51.468 0 0 0-37.377 19.582L36.186 55.757C-16.8 123.252-11.002 219.906 49.674 280.581l181.745 181.744c32.913 32.912 76.395 49.678 120.081 49.674 36.855-.003 73.859-11.94 104.742-36.186l36.083-28.325a51.474 51.474 0 0 0 19.582-37.378 51.462 51.462 0 0 0-14.972-39.448zm-4.994 38.252a31.454 31.454 0 0 1-11.967 22.843l-19.111 15.003-59.982-59.982c-3.905-3.904-10.238-3.904-14.144 0-3.905 3.905-3.905 10.238 0 14.144l58.279 58.279-1.123.881c-59.542 46.744-144.803 41.628-198.33-11.898L63.817 266.438C10.292 212.913 5.176 127.649 51.918 68.108l28.325-36.082a31.453 31.453 0 0 1 22.842-11.967 31.454 31.454 0 0 1 24.109 9.15l79.128 79.128c12.256 12.255 12.256 32.198 0 44.452l-19.632 19.632-71.602-71.602c-3.905-3.905-10.238-3.905-14.144 0-3.905 3.905-3.905 10.238 0 14.144l72.732 72.732c-8.672 15.649-6.387 35.791 6.881 49.057l94.625 94.625c16.044 16.043 42.151 16.044 58.198 0l25.764-25.765c12.256-12.257 32.198-12.257 44.453 0l79.192 79.193a31.451 31.451 0 0 1 9.152 24.109z" fill="#000000" opacity="1" data-original="#000000" class=""></path><path d="M367.489 377.53c-2.63 0-5.21-1.07-7.071-2.931-1.86-1.859-2.93-4.439-2.93-7.07s1.07-5.21 2.93-7.071c1.86-1.86 4.44-2.93 7.071-2.93 2.64 0 5.21 1.069 7.071 2.93s2.93 4.44 2.93 7.071-1.07 5.21-2.93 7.07a10.076 10.076 0 0 1-7.071 2.931zM125.32 282.672c-2.64 0-5.21-1.06-7.081-2.93a10.065 10.065 0 0 1-2.92-7.071c0-2.63 1.06-5.199 2.92-7.07a10.083 10.083 0 0 1 7.081-2.931c2.63 0 5.21 1.07 7.071 2.931a10.092 10.092 0 0 1 2.93 7.07c0 2.641-1.07 5.21-2.93 7.071a10.037 10.037 0 0 1-7.071 2.93zM94.98 252.341a9.97 9.97 0 0 1-7.072-2.929l-6.999-6.999c-28.497-28.498-39.625-70.366-29.039-109.264 1.45-5.329 6.943-8.478 12.276-7.024 5.329 1.45 8.474 6.947 7.024 12.276-8.707 31.995.445 66.43 23.884 89.868l6.999 6.999c3.905 3.905 3.905 10.238 0 14.144a9.974 9.974 0 0 1-7.073 2.929zM501.999 215.808c-5.523 0-10.001-4.477-10.001-10.001 0-102.454-83.352-185.806-185.806-185.806-5.523 0-10.001-4.477-10.001-10.001s4.478-10 10.002-10C419.676 0 512 92.325 512 205.808c0 5.523-4.477 10-10.001 10z" fill="#000000" opacity="1" data-original="#000000" class=""></path><path d="M433.177 215.808c-5.523 0-10.001-4.477-10.001-10.001 0-64.505-52.478-116.983-116.983-116.983-5.523 0-10.001-4.477-10.001-10.001 0-5.523 4.477-10.001 10.001-10.001 75.533 0 136.985 61.451 136.985 136.985 0 5.524-4.478 10.001-10.001 10.001zM360.616 215.808c-5.523 0-10.001-4.477-10.001-10.001 0-24.495-19.928-44.422-44.422-44.422-5.523 0-10.001-4.477-10.001-10.001s4.477-10.001 10.001-10.001c35.524 0 64.424 28.9 64.424 64.424 0 5.524-4.478 10.001-10.001 10.001z" fill="#000000" opacity="1" data-original="#000000" class=""></path></g></svg>